# xmcd
#
# Track frame offsets: 
#        150
#        16987
#        37949
#        58948
#        78597
#        88909
#        108934
#        132933
#        158282
#        178007
#        196569
#
# Disc length: 2880 seconds
#
# Revision: 0
# Processed by: cddbd v1.5.2PL0 Copyright (c) Steve Scherf et al.
# Submitted via: ExactAudioCopy v1.0b2
#
DISCID=7f0b3e0b
DTITLE=Nora Jean - Good Blues
DYEAR=2011
DGENRE=Blues
TTITLE0=Good Blues (feat. Little Bobby)
TTITLE1=Other Side Of The Tracks
TTITLE2=How Long
TTITLE3=It's My Life
TTITLE4=Waiting On Your Love
TTITLE5=Just Goes To Show You
TTITLE6=Rodeo (feat. Kenny Neal)
TTITLE7=It's Over
TTITLE8=Tear This Old House Down
TTITLE9=Shake The Dust Off My Feet
TTITLE10=You Gotta Pray
EXTD=
EXTT0=
EXTT1=
EXTT2=
EXTT3=
EXTT4=
EXTT5=
EXTT6=
EXTT7=
EXTT8=
EXTT9=
EXTT10=
PLAYORDER=
